<svg width="700" height="400" viewBox="0 0 700 400" fill="none" xmlns="http://www.w3.org/2000/svg">
<g clip-path="url(#clip0)">
<path d="M80.77 272.75C-8.43754 374.208 42.8475 340.321 0 400H591L569.442 339.838L524.838 300.272L489.526 237.401L458.675 220.599L434.887 196.751L421.877 169.651L417.789 156.101L414.072 143.635L402.921 133.879L391.045 123.305L375.285 98.6436L366.42 87.7928L355.585 73.9827L349.182 53.2676L339.333 33.5388L321.175 18.4334L305.842 12.8237L294.022 0L287.62 1.97287L280.725 10.3576L267.92 14.3033L250.525 37.4033L237.385 50.3083L226.55 83.8471L213.745 98.6436L206.85 107.522L203.402 125.771L185.18 143.635L165.777 162.605L152.182 174.599L139.87 182.491L125.588 200.74L109.827 232.799L80.77 272.75Z" fill="#251906"/>
<path d="M80.77 272.75C-8.43754 374.208 42.8475 340.321 0 400H591L569.442 339.838L524.838 300.272L489.526 237.401L458.675 220.599L434.887 196.751L421.877 169.651L417.789 156.101L414.072 143.635L402.921 133.879L391.045 123.305L375.285 98.6436L366.42 87.7928L355.585 73.9827L349.182 53.2676L339.333 33.5388L321.175 18.4334L305.842 12.8237L294.022 0L287.62 1.97287L280.725 10.3576L267.92 14.3033L250.525 37.4033L237.385 50.3083L226.55 83.8471L213.745 98.6436L206.85 107.522L203.402 125.771L185.18 143.635L165.777 162.605L152.182 174.599L139.87 182.491L125.588 200.74L109.827 232.799L80.77 272.75Z" fill="url(#paint0_linear)"/>
<path d="M612 285.5C705.5 360 670.026 340.357 700 399.5H193L211.494 353.911L229.96 336.212L250.831 311.295L273.007 300.332L289.53 279.402L307.792 264.452L323.446 250.997L331.708 227.575L344.752 205.648L367.798 187.708L379.538 171.964L402.583 151.828L416.063 131.895L429.5 112L446 107.5L458.5 99L469.5 106L488.5 123L508 148L518.5 171.964L538 187.708L555 217L574 250L596.5 263.5L612 285.5Z" fill="#1E1405"/>
<path d="M612 285.5C705.5 360 670.026 340.357 700 399.5H193L211.494 353.911L229.96 336.212L250.831 311.295L273.007 300.332L289.53 279.402L307.792 264.452L323.446 250.997L331.708 227.575L344.752 205.648L367.798 187.708L379.538 171.964L402.583 151.828L416.063 131.895L429.5 112L446 107.5L458.5 99L469.5 106L488.5 123L508 148L518.5 171.964L538 187.708L555 217L574 250L596.5 263.5L612 285.5Z" fill="url(#paint1_linear)"/>
<g filter="url(#filter0_d)">
<path d="M381.73 306.071C439.39 362.126 426.416 356.379 449 399.5H49L67 371.5L73.6143 353.561L87.5 332.5L107.5 319L117.5 300.736L127.991 287.32L141.136 276.401L150.636 266L165.627 253.85L182.991 240.77L192.773 222.799L207.136 214.118L219.792 202.047L236.5 191H258L270.5 202.047L278 216.5L283.5 229L291 239.5L297.04 245.038L307.5 257L319.5 268L327.5 281L342.5 292L362.5 297.5L381.73 306.071Z" fill="#1E1405"/>
<path d="M381.73 306.071C439.39 362.126 426.416 356.379 449 399.5H49L67 371.5L73.6143 353.561L87.5 332.5L107.5 319L117.5 300.736L127.991 287.32L141.136 276.401L150.636 266L165.627 253.85L182.991 240.77L192.773 222.799L207.136 214.118L219.792 202.047L236.5 191H258L270.5 202.047L278 216.5L283.5 229L291 239.5L297.04 245.038L307.5 257L319.5 268L327.5 281L342.5 292L362.5 297.5L381.73 306.071Z" fill="url(#paint2_linear)"/>
</g>
</g>
<defs>
<filter id="filter0_d" x="-31" y="91" width="600" height="408.5" filterUnits="userSpaceOnUse" color-interpolation-filters="sRGB">
<feFlood flood-opacity="0" result="BackgroundImageFix"/>
<feColorMatrix in="SourceAlpha" type="matrix" values="0 0 0 0 0 0 0 0 0 0 0 0 0 0 0 0 0 0 127 0"/>
<feOffset dx="20"/>
<feGaussianBlur stdDeviation="50"/>
<feColorMatrix type="matrix" values="0 0 0 0 0 0 0 0 0 0 0 0 0 0 0 0 0 0 0.25 0"/>
<feBlend mode="normal" in2="BackgroundImageFix" result="effect1_dropShadow"/>
<feBlend mode="normal" in="SourceGraphic" in2="effect1_dropShadow" result="shape"/>
</filter>
<linearGradient id="paint0_linear" x1="295.5" y1="10.8454" x2="295.5" y2="400" gradientUnits="userSpaceOnUse">
<stop stop-color="#ECEBD6"/>
<stop offset="1" stop-color="#49481B" stop-opacity="0"/>
</linearGradient>
<linearGradient id="paint1_linear" x1="446.5" y1="104.607" x2="446.5" y2="399.5" gradientUnits="userSpaceOnUse">
<stop stop-color="#B0A891"/>
<stop offset="1" stop-color="#49481B" stop-opacity="0"/>
</linearGradient>
<linearGradient id="paint2_linear" x1="258" y1="184.495" x2="258" y2="399.5" gradientUnits="userSpaceOnUse">
<stop stop-color="#706856"/>
<stop offset="1" stop-color="#49481B" stop-opacity="0"/>
</linearGradient>
<clipPath id="clip0">
<rect width="700" height="400" fill="white"/>
</clipPath>
</defs>
</svg>
